<svg width="322" height="93" viewBox="0 0 322 93" fill="none" xmlns="http://www.w3.org/2000/svg">
<g filter="url(#filter0_d_86_36)">
<path d="M73.4 38.312C73.24 38.312 73.096 38.256 72.968 38.144C72.856 38.032 72.8 37.896 72.8 37.736V21.44C72.8 21.28 72.856 21.144 72.968 21.032C73.096 20.904 73.24 20.84 73.4 20.84C73.576 20.84 73.72 20.904 73.832 21.032C73.944 21.144 74 21.28 74 21.44V28.592H82.784V21.44C82.784 21.28 82.84 21.144 82.952 21.032C83.08 20.904 83.224 20.84 83.384 20.84C83.56 20.84 83.696 20.904 83.792 21.032C83.904 21.144 83.96 21.28 83.96 21.44V37.736C83.96 37.896 83.904 38.032 83.792 38.144C83.696 38.256 83.56 38.312 83.384 38.312C83.224 38.312 83.08 38.256 82.952 38.144C82.84 38.032 82.784 37.896 82.784 37.736V29.792H74V37.736C74 37.896 73.944 38.032 73.832 38.144C73.72 38.256 73.576 38.312 73.4 38.312ZM91.8851 38.192C91.7251 38.144 91.6131 38.048 91.5491 37.904C91.4851 37.744 91.4851 37.584 91.5491 37.424L97.5731 21.176C97.6851 20.92 97.8771 20.792 98.1491 20.792C98.4211 20.792 98.6131 20.92 98.7251 21.176L104.773 37.424C104.837 37.584 104.829 37.744 104.749 37.904C104.685 38.048 104.573 38.144 104.413 38.192C104.269 38.256 104.117 38.248 103.957 38.168C103.813 38.104 103.709 37.992 103.645 37.832L98.1491 23.12L94.8131 32.024H99.3491C99.5091 32.024 99.6451 32.088 99.7571 32.216C99.8691 32.328 99.9251 32.472 99.9251 32.648C99.9251 32.808 99.8691 32.944 99.7571 33.056C99.6451 33.168 99.5091 33.224 99.3491 33.224H94.3571L92.6531 37.832C92.5891 37.992 92.4851 38.104 92.3411 38.168C92.1971 38.248 92.0451 38.256 91.8851 38.192ZM117.658 38.312C117.498 38.312 117.354 38.256 117.226 38.144C117.114 38.032 117.058 37.896 117.058 37.736V30.8L111.418 21.776C111.322 21.632 111.29 21.48 111.322 21.32C111.37 21.16 111.458 21.032 111.586 20.936C111.746 20.856 111.906 20.832 112.066 20.864C112.226 20.896 112.346 20.984 112.426 21.128L117.658 29.48L122.818 21.128C122.914 20.984 123.042 20.896 123.202 20.864C123.362 20.816 123.514 20.84 123.658 20.936C123.786 21.032 123.866 21.16 123.898 21.32C123.946 21.48 123.922 21.632 123.826 21.776L118.258 30.8V37.736C118.258 37.896 118.202 38.032 118.09 38.144C117.978 38.256 117.834 38.312 117.658 38.312ZM131.933 38.312C131.773 38.312 131.629 38.256 131.501 38.144C131.389 38.032 131.333 37.896 131.333 37.736V21.8C131.333 21.64 131.389 21.504 131.501 21.392C131.629 21.264 131.773 21.2 131.933 21.2H140.621C140.781 21.2 140.917 21.264 141.029 21.392C141.157 21.504 141.221 21.64 141.221 21.8C141.221 21.96 141.157 22.104 141.029 22.232C140.917 22.344 140.781 22.4 140.621 22.4H132.533V28.88C132.549 28.88 132.565 28.88 132.581 28.88C132.597 28.864 132.613 28.856 132.629 28.856H139.277C139.453 28.856 139.597 28.912 139.709 29.024C139.837 29.136 139.901 29.28 139.901 29.456C139.901 29.616 139.837 29.76 139.709 29.888C139.597 30 139.453 30.056 139.277 30.056H132.533V37.736C132.533 37.896 132.477 38.032 132.365 38.144C132.253 38.256 132.109 38.312 131.933 38.312ZM149.775 38.312C149.615 38.312 149.471 38.256 149.343 38.144C149.231 38.032 149.175 37.896 149.175 37.736V21.464C149.175 21.288 149.231 21.144 149.343 21.032C149.471 20.904 149.615 20.84 149.775 20.84C149.951 20.84 150.095 20.904 150.207 21.032C150.319 21.144 150.375 21.288 150.375 21.464V37.736C150.375 37.896 150.319 38.032 150.207 38.144C150.095 38.256 149.951 38.312 149.775 38.312ZM159.861 38C159.701 38 159.557 37.944 159.429 37.832C159.317 37.704 159.261 37.56 159.261 37.4V21.8C159.261 21.64 159.317 21.504 159.429 21.392C159.557 21.264 159.701 21.2 159.861 21.2H168.285C168.461 21.2 168.605 21.264 168.717 21.392C168.829 21.504 168.885 21.64 168.885 21.8C168.885 21.96 168.829 22.104 168.717 22.232C168.605 22.344 168.461 22.4 168.285 22.4H160.461V28.856H166.965C167.125 28.856 167.261 28.912 167.373 29.024C167.501 29.136 167.565 29.28 167.565 29.456C167.565 29.616 167.501 29.76 167.373 29.888C167.261 30 167.125 30.056 166.965 30.056H160.461V36.8H168.285C168.461 36.8 168.605 36.856 168.717 36.968C168.829 37.08 168.885 37.224 168.885 37.4C168.885 37.56 168.829 37.704 168.717 37.832C168.605 37.944 168.461 38 168.285 38H159.861ZM177.458 38C177.298 38 177.154 37.944 177.026 37.832C176.914 37.704 176.858 37.56 176.858 37.4V21.464C176.858 21.288 176.914 21.144 177.026 21.032C177.154 20.904 177.298 20.84 177.458 20.84C177.634 20.84 177.778 20.904 177.89 21.032C178.002 21.144 178.058 21.288 178.058 21.464V36.8H185.882C186.058 36.8 186.202 36.856 186.314 36.968C186.426 37.08 186.482 37.224 186.482 37.4C186.482 37.56 186.426 37.704 186.314 37.832C186.202 37.944 186.058 38 185.882 38H177.458ZM194.586 38C194.426 38 194.282 37.944 194.154 37.832C194.042 37.704 193.986 37.56 193.986 37.4V21.8C193.986 21.64 194.042 21.504 194.154 21.392C194.282 21.264 194.426 21.2 194.586 21.2H199.482C200.506 21.2 201.434 21.456 202.266 21.968C203.098 22.464 203.762 23.128 204.258 23.96C204.77 24.792 205.026 25.72 205.026 26.744V32.432C205.026 33.456 204.77 34.392 204.258 35.24C203.762 36.072 203.098 36.744 202.266 37.256C201.434 37.752 200.506 38 199.482 38H194.586ZM195.186 36.8H199.482C200.282 36.8 201.01 36.608 201.666 36.224C202.322 35.824 202.842 35.296 203.226 34.64C203.626 33.968 203.826 33.232 203.826 32.432V26.744C203.826 25.944 203.626 25.216 203.226 24.56C202.842 23.904 202.322 23.384 201.666 23C201.01 22.6 200.282 22.4 199.482 22.4H195.186V36.8ZM84.056 65.944C83.656 66.184 82.992 66.464 82.064 66.784C81.152 67.088 80.08 67.24 78.848 67.24C77.456 67.24 76.288 66.952 75.344 66.376C74.416 65.8 73.712 65.008 73.232 64C72.752 62.992 72.512 61.84 72.512 60.544V57.112C72.512 55.784 72.752 54.624 73.232 53.632C73.712 52.624 74.424 51.84 75.368 51.28C76.328 50.72 77.528 50.44 78.968 50.44C79.672 50.44 80.4 50.52 81.152 50.68C81.904 50.824 82.728 51.096 83.624 51.496L82.736 54.016C81.952 53.712 81.272 53.496 80.696 53.368C80.136 53.224 79.576 53.152 79.016 53.152C77.768 53.152 76.864 53.512 76.304 54.232C75.744 54.936 75.464 55.896 75.464 57.112V60.544C75.464 61.696 75.744 62.64 76.304 63.376C76.88 64.112 77.776 64.48 78.992 64.48C79.36 64.48 79.76 64.448 80.192 64.384C80.624 64.32 81.04 64.232 81.44 64.12V60.544H78.8V58.024H84.056V65.944ZM95.3969 61V67H92.5169V50.68H97.9649C99.6129 50.68 100.877 51.104 101.757 51.952C102.653 52.784 103.101 53.904 103.101 55.312V56.344C103.101 57.272 102.901 58.088 102.501 58.792C102.101 59.496 101.525 60.032 100.773 60.4C102.085 62.64 103.205 64.84 104.133 67H100.845C100.045 65 99.0929 63 97.9889 61H95.3969ZM97.9649 53.32H95.3969V58.36H97.9649C98.6689 58.36 99.2049 58.184 99.5729 57.832C99.9569 57.464 100.149 56.968 100.149 56.344V55.312C100.149 54.704 99.9569 54.224 99.5729 53.872C99.2049 53.504 98.6689 53.32 97.9649 53.32ZM123.486 57.112V60.544C123.486 62.624 122.966 64.264 121.926 65.464C120.886 66.648 119.366 67.24 117.366 67.24C115.35 67.24 113.822 66.648 112.782 65.464C111.758 64.264 111.246 62.624 111.246 60.544V57.112C111.246 55.032 111.758 53.4 112.782 52.216C113.822 51.032 115.35 50.44 117.366 50.44C119.366 50.44 120.886 51.032 121.926 52.216C122.966 53.4 123.486 55.032 123.486 57.112ZM120.534 57.112C120.534 55.8 120.278 54.816 119.766 54.16C119.254 53.488 118.454 53.152 117.366 53.152C116.278 53.152 115.478 53.488 114.966 54.16C114.454 54.816 114.198 55.8 114.198 57.112V60.544C114.198 61.856 114.454 62.848 114.966 63.52C115.478 64.192 116.278 64.528 117.366 64.528C118.454 64.528 119.254 64.192 119.766 63.52C120.278 62.848 120.534 61.856 120.534 60.544V57.112ZM131.71 50.68H134.662V61.144C134.662 62.2 134.894 63.032 135.358 63.64C135.822 64.232 136.566 64.528 137.59 64.528C138.614 64.528 139.358 64.232 139.822 63.64C140.286 63.032 140.518 62.2 140.518 61.144V50.68H143.47V61.144C143.47 62.984 142.982 64.464 142.006 65.584C141.03 66.688 139.558 67.24 137.59 67.24C135.606 67.24 134.126 66.688 133.15 65.584C132.19 64.464 131.71 62.984 131.71 61.144V50.68ZM152.409 67V50.68H157.785C159.497 50.68 160.777 51.112 161.625 51.976C162.489 52.84 162.921 53.992 162.921 55.432V56.704C162.921 58.144 162.489 59.304 161.625 60.184C160.777 61.048 159.497 61.48 157.785 61.48H155.289V67H152.409ZM157.785 53.44H155.289V58.72H157.785C158.489 58.72 159.025 58.544 159.393 58.192C159.777 57.84 159.969 57.344 159.969 56.704V55.432C159.969 54.808 159.777 54.32 159.393 53.968C159.025 53.616 158.489 53.44 157.785 53.44ZM170.914 67H168.01V64.144H170.914V67Z" fill="white"/>
</g>
<g filter="url(#filter1_d_86_36)">
<rect x="31" width="85" height="9" transform="rotate(90 31 0)" fill="white"/>
</g>
<g filter="url(#filter2_d_86_36)">
<rect x="4" y="39" width="61" height="8" fill="white"/>
</g>
<g filter="url(#filter3_d_86_36)">
<rect x="65" width="85" height="9" transform="rotate(90 65 0)" fill="white"/>
</g>
<defs>
<filter id="filter0_d_86_36" x="68.512" y="20.792" width="140.514" height="54.448" filterUnits="userSpaceOnUse" color-interpolation-filters="sRGB">
<feFlood flood-opacity="0" result="BackgroundImageFix"/>
<feColorMatrix in="SourceAlpha" type="matrix" values="0 0 0 0 0 0 0 0 0 0 0 0 0 0 0 0 0 0 127 0" result="hardAlpha"/>
<feOffset dy="4"/>
<feGaussianBlur stdDeviation="2"/>
<feComposite in2="hardAlpha" operator="out"/>
<feColorMatrix type="matrix" values="0 0 0 0 0 0 0 0 0 0 0 0 0 0 0 0 0 0 0.25 0"/>
<feBlend mode="normal" in2="BackgroundImageFix" result="effect1_dropShadow_86_36"/>
<feBlend mode="normal" in="SourceGraphic" in2="effect1_dropShadow_86_36" result="shape"/>
</filter>
<filter id="filter1_d_86_36" x="18" y="0" width="17" height="93" filterUnits="userSpaceOnUse" color-interpolation-filters="sRGB">
<feFlood flood-opacity="0" result="BackgroundImageFix"/>
<feColorMatrix in="SourceAlpha" type="matrix" values="0 0 0 0 0 0 0 0 0 0 0 0 0 0 0 0 0 0 127 0" result="hardAlpha"/>
<feOffset dy="4"/>
<feGaussianBlur stdDeviation="2"/>
<feComposite in2="hardAlpha" operator="out"/>
<feColorMatrix type="matrix" values="0 0 0 0 0 0 0 0 0 0 0 0 0 0 0 0 0 0 0.25 0"/>
<feBlend mode="normal" in2="BackgroundImageFix" result="effect1_dropShadow_86_36"/>
<feBlend mode="normal" in="SourceGraphic" in2="effect1_dropShadow_86_36" result="shape"/>
</filter>
<filter id="filter2_d_86_36" x="0" y="39" width="69" height="16" filterUnits="userSpaceOnUse" color-interpolation-filters="sRGB">
<feFlood flood-opacity="0" result="BackgroundImageFix"/>
<feColorMatrix in="SourceAlpha" type="matrix" values="0 0 0 0 0 0 0 0 0 0 0 0 0 0 0 0 0 0 127 0" result="hardAlpha"/>
<feOffset dy="4"/>
<feGaussianBlur stdDeviation="2"/>
<feComposite in2="hardAlpha" operator="out"/>
<feColorMatrix type="matrix" values="0 0 0 0 0 0 0 0 0 0 0 0 0 0 0 0 0 0 0.25 0"/>
<feBlend mode="normal" in2="BackgroundImageFix" result="effect1_dropShadow_86_36"/>
<feBlend mode="normal" in="SourceGraphic" in2="effect1_dropShadow_86_36" result="shape"/>
</filter>
<filter id="filter3_d_86_36" x="52" y="0" width="17" height="93" filterUnits="userSpaceOnUse" color-interpolation-filters="sRGB">
<feFlood flood-opacity="0" result="BackgroundImageFix"/>
<feColorMatrix in="SourceAlpha" type="matrix" values="0 0 0 0 0 0 0 0 0 0 0 0 0 0 0 0 0 0 127 0" result="hardAlpha"/>
<feOffset dy="4"/>
<feGaussianBlur stdDeviation="2"/>
<feComposite in2="hardAlpha" operator="out"/>
<feColorMatrix type="matrix" values="0 0 0 0 0 0 0 0 0 0 0 0 0 0 0 0 0 0 0.25 0"/>
<feBlend mode="normal" in2="BackgroundImageFix" result="effect1_dropShadow_86_36"/>
<feBlend mode="normal" in="SourceGraphic" in2="effect1_dropShadow_86_36" result="shape"/>
</filter>
</defs>
</svg>
